<mxfile host="app.diagrams.net" modified="2022-01-20T11:44:11.982Z" agent="5.0 (Macintosh; Intel Mac OS X 10_15_7) AppleWebKit/537.36 (KHTML, like Gecko) Chrome/97.0.4692.71 Safari/537.36" etag="yjr8U2UbJFcnUxei_wga" version="16.3.0" type="github">
  <diagram id="oN22EbAgv7MzUfUSaqUO" name="Page-1">
    <mxGraphModel dx="946" dy="527" grid="1" gridSize="10" guides="1" tooltips="1" connect="1" arrows="1" fold="1" page="1" pageScale="1" pageWidth="827" pageHeight="1169" math="0" shadow="0">
      <root>
        <mxCell id="0" />
        <mxCell id="1" parent="0" />
        <mxCell id="j659b9dgUSXwy1I3t3Zu-1" value="Internet" style="rounded=0;whiteSpace=wrap;html=1;" parent="1" vertex="1">
          <mxGeometry x="332" y="50" width="120" height="60" as="geometry" />
        </mxCell>
        <mxCell id="j659b9dgUSXwy1I3t3Zu-2" value="Router" style="ellipse;whiteSpace=wrap;html=1;aspect=fixed;" parent="1" vertex="1">
          <mxGeometry x="362" y="220" width="60" height="60" as="geometry" />
        </mxCell>
        <mxCell id="j659b9dgUSXwy1I3t3Zu-3" value="SW-Server" style="rounded=1;whiteSpace=wrap;html=1;" parent="1" vertex="1">
          <mxGeometry x="457" y="210" width="90" height="50" as="geometry" />
        </mxCell>
        <mxCell id="j659b9dgUSXwy1I3t3Zu-4" value="SW-Verkauf" style="rounded=1;whiteSpace=wrap;html=1;" parent="1" vertex="1">
          <mxGeometry x="547" y="350" width="90" height="50" as="geometry" />
        </mxCell>
        <mxCell id="j659b9dgUSXwy1I3t3Zu-5" value="DHCP/DNS&lt;br&gt;Server" style="shape=cube;whiteSpace=wrap;html=1;boundedLbl=1;backgroundOutline=1;darkOpacity=0.05;darkOpacity2=0.1;" parent="1" vertex="1">
          <mxGeometry x="547" y="40" width="80" height="120" as="geometry" />
        </mxCell>
        <mxCell id="j659b9dgUSXwy1I3t3Zu-6" value="Web-Server" style="shape=cube;whiteSpace=wrap;html=1;boundedLbl=1;backgroundOutline=1;darkOpacity=0.05;darkOpacity2=0.1;" parent="1" vertex="1">
          <mxGeometry x="647" y="40" width="80" height="120" as="geometry" />
        </mxCell>
        <mxCell id="j659b9dgUSXwy1I3t3Zu-7" value="Fileserver" style="shape=cube;whiteSpace=wrap;html=1;boundedLbl=1;backgroundOutline=1;darkOpacity=0.05;darkOpacity2=0.1;" parent="1" vertex="1">
          <mxGeometry x="747" y="40" width="80" height="120" as="geometry" />
        </mxCell>
        <mxCell id="j659b9dgUSXwy1I3t3Zu-9" value="" style="endArrow=none;html=1;rounded=0;entryX=0;entryY=0;entryDx=50;entryDy=120;entryPerimeter=0;exitX=1;exitY=0;exitDx=0;exitDy=0;" parent="1" source="j659b9dgUSXwy1I3t3Zu-3" target="j659b9dgUSXwy1I3t3Zu-5" edge="1">
          <mxGeometry width="50" height="50" relative="1" as="geometry">
            <mxPoint x="597" y="240" as="sourcePoint" />
            <mxPoint x="617" y="190" as="targetPoint" />
            <Array as="points">
              <mxPoint x="597" y="200" />
            </Array>
          </mxGeometry>
        </mxCell>
        <mxCell id="j659b9dgUSXwy1I3t3Zu-10" value="" style="endArrow=none;html=1;rounded=0;exitX=1;exitY=0.5;exitDx=0;exitDy=0;" parent="1" source="j659b9dgUSXwy1I3t3Zu-3" edge="1">
          <mxGeometry width="50" height="50" relative="1" as="geometry">
            <mxPoint x="697" y="240" as="sourcePoint" />
            <mxPoint x="697" y="160" as="targetPoint" />
            <Array as="points">
              <mxPoint x="697" y="200" />
            </Array>
          </mxGeometry>
        </mxCell>
        <mxCell id="j659b9dgUSXwy1I3t3Zu-11" value="" style="endArrow=none;html=1;rounded=0;exitX=1;exitY=1;exitDx=0;exitDy=0;" parent="1" source="j659b9dgUSXwy1I3t3Zu-3" edge="1">
          <mxGeometry width="50" height="50" relative="1" as="geometry">
            <mxPoint x="797" y="240" as="sourcePoint" />
            <mxPoint x="797" y="160" as="targetPoint" />
            <Array as="points">
              <mxPoint x="797" y="200" />
            </Array>
          </mxGeometry>
        </mxCell>
        <mxCell id="j659b9dgUSXwy1I3t3Zu-12" value="&lt;p&gt;SW-Core&lt;/p&gt;" style="rounded=0;whiteSpace=wrap;html=1;" parent="1" vertex="1">
          <mxGeometry x="352" y="350" width="80" height="80" as="geometry" />
        </mxCell>
        <mxCell id="j659b9dgUSXwy1I3t3Zu-13" value="" style="endArrow=none;html=1;rounded=0;entryX=0;entryY=0.5;entryDx=0;entryDy=0;" parent="1" target="j659b9dgUSXwy1I3t3Zu-4" edge="1">
          <mxGeometry width="50" height="50" relative="1" as="geometry">
            <mxPoint x="432" y="390" as="sourcePoint" />
            <mxPoint x="482" y="340" as="targetPoint" />
          </mxGeometry>
        </mxCell>
        <mxCell id="j659b9dgUSXwy1I3t3Zu-14" value="SW-Einkauf" style="rounded=1;whiteSpace=wrap;html=1;" parent="1" vertex="1">
          <mxGeometry x="342" y="540" width="90" height="50" as="geometry" />
        </mxCell>
        <mxCell id="j659b9dgUSXwy1I3t3Zu-15" value="" style="endArrow=none;html=1;rounded=0;entryX=1;entryY=1;entryDx=0;entryDy=0;exitX=0.5;exitY=0;exitDx=0;exitDy=0;" parent="1" source="j659b9dgUSXwy1I3t3Zu-14" target="j659b9dgUSXwy1I3t3Zu-12" edge="1">
          <mxGeometry width="50" height="50" relative="1" as="geometry">
            <mxPoint x="452" y="610" as="sourcePoint" />
            <mxPoint x="502" y="560" as="targetPoint" />
          </mxGeometry>
        </mxCell>
        <mxCell id="j659b9dgUSXwy1I3t3Zu-17" value="AP-Einkauf" style="rounded=1;whiteSpace=wrap;html=1;" parent="1" vertex="1">
          <mxGeometry x="534.5" y="550" width="65" height="50" as="geometry" />
        </mxCell>
        <mxCell id="j659b9dgUSXwy1I3t3Zu-18" value="" style="endArrow=none;html=1;rounded=0;entryX=1;entryY=0.5;entryDx=0;entryDy=0;exitX=0;exitY=0.5;exitDx=0;exitDy=0;" parent="1" source="j659b9dgUSXwy1I3t3Zu-17" target="j659b9dgUSXwy1I3t3Zu-14" edge="1">
          <mxGeometry width="50" height="50" relative="1" as="geometry">
            <mxPoint x="387" y="670" as="sourcePoint" />
            <mxPoint x="437" y="620" as="targetPoint" />
          </mxGeometry>
        </mxCell>
        <mxCell id="j659b9dgUSXwy1I3t3Zu-19" value="EK-&amp;nbsp; &amp;nbsp;Tablet01" style="shape=parallelogram;perimeter=parallelogramPerimeter;whiteSpace=wrap;html=1;fixedSize=1;" parent="1" vertex="1">
          <mxGeometry x="534.5" y="640" width="72.5" height="50" as="geometry" />
        </mxCell>
        <mxCell id="j659b9dgUSXwy1I3t3Zu-21" value="" style="endArrow=none;dashed=1;html=1;dashPattern=1 3;strokeWidth=2;rounded=0;exitX=0.641;exitY=0;exitDx=0;exitDy=0;exitPerimeter=0;" parent="1" source="j659b9dgUSXwy1I3t3Zu-19" edge="1">
          <mxGeometry width="50" height="50" relative="1" as="geometry">
            <mxPoint x="587" y="630" as="sourcePoint" />
            <mxPoint x="577" y="600" as="targetPoint" />
          </mxGeometry>
        </mxCell>
        <mxCell id="j659b9dgUSXwy1I3t3Zu-22" value="PC-EK03" style="whiteSpace=wrap;html=1;aspect=fixed;" parent="1" vertex="1">
          <mxGeometry x="407" y="660" width="50" height="50" as="geometry" />
        </mxCell>
        <mxCell id="j659b9dgUSXwy1I3t3Zu-23" value="PC-EK02" style="whiteSpace=wrap;html=1;aspect=fixed;" parent="1" vertex="1">
          <mxGeometry x="337" y="660" width="50" height="50" as="geometry" />
        </mxCell>
        <mxCell id="j659b9dgUSXwy1I3t3Zu-24" value="PC-EK01" style="whiteSpace=wrap;html=1;aspect=fixed;" parent="1" vertex="1">
          <mxGeometry x="262" y="660" width="50" height="50" as="geometry" />
        </mxCell>
        <mxCell id="j659b9dgUSXwy1I3t3Zu-25" value="" style="endArrow=none;html=1;rounded=0;entryX=0;entryY=1;entryDx=0;entryDy=0;exitX=0.5;exitY=0;exitDx=0;exitDy=0;" parent="1" target="j659b9dgUSXwy1I3t3Zu-14" edge="1">
          <mxGeometry width="50" height="50" relative="1" as="geometry">
            <mxPoint x="292" y="660" as="sourcePoint" />
            <mxPoint x="437" y="620" as="targetPoint" />
          </mxGeometry>
        </mxCell>
        <mxCell id="j659b9dgUSXwy1I3t3Zu-26" value="" style="endArrow=none;html=1;rounded=0;entryX=0.5;entryY=1;entryDx=0;entryDy=0;exitX=0.5;exitY=0;exitDx=0;exitDy=0;" parent="1" source="j659b9dgUSXwy1I3t3Zu-23" target="j659b9dgUSXwy1I3t3Zu-14" edge="1">
          <mxGeometry width="50" height="50" relative="1" as="geometry">
            <mxPoint x="387" y="670" as="sourcePoint" />
            <mxPoint x="437" y="620" as="targetPoint" />
          </mxGeometry>
        </mxCell>
        <mxCell id="j659b9dgUSXwy1I3t3Zu-27" value="" style="endArrow=none;html=1;rounded=0;entryX=1;entryY=1;entryDx=0;entryDy=0;exitX=0.5;exitY=0;exitDx=0;exitDy=0;" parent="1" source="j659b9dgUSXwy1I3t3Zu-22" target="j659b9dgUSXwy1I3t3Zu-14" edge="1">
          <mxGeometry width="50" height="50" relative="1" as="geometry">
            <mxPoint x="387" y="670" as="sourcePoint" />
            <mxPoint x="437" y="620" as="targetPoint" />
          </mxGeometry>
        </mxCell>
        <mxCell id="j659b9dgUSXwy1I3t3Zu-28" value="" style="endArrow=none;html=1;rounded=0;entryX=0.5;entryY=1;entryDx=0;entryDy=0;exitX=0.5;exitY=0;exitDx=0;exitDy=0;" parent="1" source="j659b9dgUSXwy1I3t3Zu-2" target="j659b9dgUSXwy1I3t3Zu-1" edge="1">
          <mxGeometry width="50" height="50" relative="1" as="geometry">
            <mxPoint x="692" y="270" as="sourcePoint" />
            <mxPoint x="742" y="220" as="targetPoint" />
          </mxGeometry>
        </mxCell>
        <mxCell id="j659b9dgUSXwy1I3t3Zu-29" value="" style="endArrow=none;html=1;rounded=0;entryX=0;entryY=0.5;entryDx=0;entryDy=0;exitX=1;exitY=0.5;exitDx=0;exitDy=0;" parent="1" source="j659b9dgUSXwy1I3t3Zu-2" target="j659b9dgUSXwy1I3t3Zu-3" edge="1">
          <mxGeometry width="50" height="50" relative="1" as="geometry">
            <mxPoint x="692" y="270" as="sourcePoint" />
            <mxPoint x="742" y="220" as="targetPoint" />
          </mxGeometry>
        </mxCell>
        <mxCell id="j659b9dgUSXwy1I3t3Zu-30" value="" style="endArrow=none;html=1;rounded=0;entryX=0.5;entryY=1;entryDx=0;entryDy=0;exitX=0.5;exitY=0;exitDx=0;exitDy=0;" parent="1" source="j659b9dgUSXwy1I3t3Zu-12" target="j659b9dgUSXwy1I3t3Zu-2" edge="1">
          <mxGeometry width="50" height="50" relative="1" as="geometry">
            <mxPoint x="692" y="270" as="sourcePoint" />
            <mxPoint x="742" y="220" as="targetPoint" />
          </mxGeometry>
        </mxCell>
        <mxCell id="j659b9dgUSXwy1I3t3Zu-31" value="AP-Mitarbeiter" style="rounded=1;whiteSpace=wrap;html=1;" parent="1" vertex="1">
          <mxGeometry x="667" y="325" width="65" height="50" as="geometry" />
        </mxCell>
        <mxCell id="j659b9dgUSXwy1I3t3Zu-32" value="AP-Kunden" style="rounded=1;whiteSpace=wrap;html=1;" parent="1" vertex="1">
          <mxGeometry x="667" y="400" width="65" height="50" as="geometry" />
        </mxCell>
        <mxCell id="j659b9dgUSXwy1I3t3Zu-34" value="MA-&amp;nbsp; &amp;nbsp;Tablet01" style="shape=parallelogram;perimeter=parallelogramPerimeter;whiteSpace=wrap;html=1;fixedSize=1;" parent="1" vertex="1">
          <mxGeometry x="754.5" y="325" width="72.5" height="50" as="geometry" />
        </mxCell>
        <mxCell id="j659b9dgUSXwy1I3t3Zu-35" value="MA-Laptop01" style="shape=parallelogram;perimeter=parallelogramPerimeter;whiteSpace=wrap;html=1;fixedSize=1;" parent="1" vertex="1">
          <mxGeometry x="732" y="245" width="72.5" height="50" as="geometry" />
        </mxCell>
        <mxCell id="j659b9dgUSXwy1I3t3Zu-36" value="KD-&amp;nbsp;&lt;br&gt;&amp;nbsp;SP01" style="shape=parallelogram;perimeter=parallelogramPerimeter;whiteSpace=wrap;html=1;fixedSize=1;" parent="1" vertex="1">
          <mxGeometry x="682" y="475" width="56" height="40" as="geometry" />
        </mxCell>
        <mxCell id="j659b9dgUSXwy1I3t3Zu-37" value="" style="endArrow=none;dashed=1;html=1;dashPattern=1 3;strokeWidth=2;rounded=0;entryX=1;entryY=0;entryDx=0;entryDy=0;exitX=0;exitY=1;exitDx=0;exitDy=0;" parent="1" source="j659b9dgUSXwy1I3t3Zu-35" target="j659b9dgUSXwy1I3t3Zu-31" edge="1">
          <mxGeometry width="50" height="50" relative="1" as="geometry">
            <mxPoint x="689.5" y="325" as="sourcePoint" />
            <mxPoint x="654.5" y="405" as="targetPoint" />
          </mxGeometry>
        </mxCell>
        <mxCell id="j659b9dgUSXwy1I3t3Zu-38" value="" style="endArrow=none;dashed=1;html=1;dashPattern=1 3;strokeWidth=2;rounded=0;entryX=1;entryY=1;entryDx=0;entryDy=0;exitX=0;exitY=1;exitDx=0;exitDy=0;" parent="1" source="j659b9dgUSXwy1I3t3Zu-34" target="j659b9dgUSXwy1I3t3Zu-31" edge="1">
          <mxGeometry width="50" height="50" relative="1" as="geometry">
            <mxPoint x="724.5" y="335" as="sourcePoint" />
            <mxPoint x="699.5" y="370" as="targetPoint" />
          </mxGeometry>
        </mxCell>
        <mxCell id="j659b9dgUSXwy1I3t3Zu-39" value="" style="endArrow=none;dashed=1;html=1;dashPattern=1 3;strokeWidth=2;rounded=0;entryX=0.75;entryY=1;entryDx=0;entryDy=0;exitX=0.643;exitY=-0.075;exitDx=0;exitDy=0;exitPerimeter=0;" parent="1" source="j659b9dgUSXwy1I3t3Zu-36" target="j659b9dgUSXwy1I3t3Zu-32" edge="1">
          <mxGeometry width="50" height="50" relative="1" as="geometry">
            <mxPoint x="604.5" y="455" as="sourcePoint" />
            <mxPoint x="654.5" y="405" as="targetPoint" />
          </mxGeometry>
        </mxCell>
        <mxCell id="j659b9dgUSXwy1I3t3Zu-40" value="" style="endArrow=none;html=1;rounded=0;exitX=1;exitY=0.5;exitDx=0;exitDy=0;entryX=0;entryY=0.5;entryDx=0;entryDy=0;" parent="1" source="j659b9dgUSXwy1I3t3Zu-4" target="j659b9dgUSXwy1I3t3Zu-31" edge="1">
          <mxGeometry width="50" height="50" relative="1" as="geometry">
            <mxPoint x="677.5" y="460" as="sourcePoint" />
            <mxPoint x="727.5" y="410" as="targetPoint" />
          </mxGeometry>
        </mxCell>
        <mxCell id="j659b9dgUSXwy1I3t3Zu-41" value="" style="endArrow=none;html=1;rounded=0;exitX=1;exitY=1;exitDx=0;exitDy=0;entryX=0;entryY=0.5;entryDx=0;entryDy=0;" parent="1" source="j659b9dgUSXwy1I3t3Zu-4" target="j659b9dgUSXwy1I3t3Zu-32" edge="1">
          <mxGeometry width="50" height="50" relative="1" as="geometry">
            <mxPoint x="557.5" y="400" as="sourcePoint" />
            <mxPoint x="707.5" y="400" as="targetPoint" />
          </mxGeometry>
        </mxCell>
        <mxCell id="j659b9dgUSXwy1I3t3Zu-42" value="PC-VK01" style="whiteSpace=wrap;html=1;aspect=fixed;" parent="1" vertex="1">
          <mxGeometry x="492" y="425" width="50" height="50" as="geometry" />
        </mxCell>
        <mxCell id="j659b9dgUSXwy1I3t3Zu-43" value="PC-VK02" style="whiteSpace=wrap;html=1;aspect=fixed;" parent="1" vertex="1">
          <mxGeometry x="549.5" y="425" width="50" height="50" as="geometry" />
        </mxCell>
        <mxCell id="j659b9dgUSXwy1I3t3Zu-44" value="" style="endArrow=none;html=1;rounded=0;entryX=0;entryY=1;entryDx=0;entryDy=0;exitX=0.5;exitY=0;exitDx=0;exitDy=0;" parent="1" source="j659b9dgUSXwy1I3t3Zu-42" target="j659b9dgUSXwy1I3t3Zu-4" edge="1">
          <mxGeometry width="50" height="50" relative="1" as="geometry">
            <mxPoint x="507.5" y="560" as="sourcePoint" />
            <mxPoint x="557.5" y="510" as="targetPoint" />
          </mxGeometry>
        </mxCell>
        <mxCell id="j659b9dgUSXwy1I3t3Zu-45" value="" style="endArrow=none;html=1;rounded=0;entryX=0.5;entryY=1;entryDx=0;entryDy=0;exitX=0.5;exitY=0;exitDx=0;exitDy=0;" parent="1" source="j659b9dgUSXwy1I3t3Zu-43" target="j659b9dgUSXwy1I3t3Zu-4" edge="1">
          <mxGeometry width="50" height="50" relative="1" as="geometry">
            <mxPoint x="567.5" y="550" as="sourcePoint" />
            <mxPoint x="467.5" y="425" as="targetPoint" />
          </mxGeometry>
        </mxCell>
        <mxCell id="j659b9dgUSXwy1I3t3Zu-46" value="SW-Lager" style="rounded=1;whiteSpace=wrap;html=1;" parent="1" vertex="1">
          <mxGeometry x="204.5" y="500" width="90" height="50" as="geometry" />
        </mxCell>
        <mxCell id="j659b9dgUSXwy1I3t3Zu-47" value="SW-Finanzen" style="rounded=1;whiteSpace=wrap;html=1;" parent="1" vertex="1">
          <mxGeometry x="102" y="415" width="90" height="50" as="geometry" />
        </mxCell>
        <mxCell id="j659b9dgUSXwy1I3t3Zu-48" value="SW-Verwaltung" style="rounded=1;whiteSpace=wrap;html=1;" parent="1" vertex="1">
          <mxGeometry x="192" y="245" width="90" height="50" as="geometry" />
        </mxCell>
        <mxCell id="j659b9dgUSXwy1I3t3Zu-49" value="" style="endArrow=none;html=1;rounded=0;entryX=1;entryY=0.5;entryDx=0;entryDy=0;" parent="1" target="j659b9dgUSXwy1I3t3Zu-46" edge="1">
          <mxGeometry width="50" height="50" relative="1" as="geometry">
            <mxPoint x="352" y="430" as="sourcePoint" />
            <mxPoint x="402" y="380" as="targetPoint" />
          </mxGeometry>
        </mxCell>
        <mxCell id="j659b9dgUSXwy1I3t3Zu-50" value="" style="endArrow=none;html=1;rounded=0;exitX=0;exitY=0.5;exitDx=0;exitDy=0;entryX=0.5;entryY=0;entryDx=0;entryDy=0;" parent="1" source="j659b9dgUSXwy1I3t3Zu-12" target="j659b9dgUSXwy1I3t3Zu-47" edge="1">
          <mxGeometry width="50" height="50" relative="1" as="geometry">
            <mxPoint x="352" y="430" as="sourcePoint" />
            <mxPoint x="402" y="380" as="targetPoint" />
            <Array as="points">
              <mxPoint x="172" y="390" />
            </Array>
          </mxGeometry>
        </mxCell>
        <mxCell id="j659b9dgUSXwy1I3t3Zu-51" value="" style="endArrow=none;html=1;rounded=0;exitX=0;exitY=0;exitDx=0;exitDy=0;entryX=1;entryY=0.5;entryDx=0;entryDy=0;" parent="1" source="j659b9dgUSXwy1I3t3Zu-12" target="j659b9dgUSXwy1I3t3Zu-48" edge="1">
          <mxGeometry width="50" height="50" relative="1" as="geometry">
            <mxPoint x="352" y="430" as="sourcePoint" />
            <mxPoint x="402" y="380" as="targetPoint" />
          </mxGeometry>
        </mxCell>
        <mxCell id="j659b9dgUSXwy1I3t3Zu-52" value="AP-Gäste" style="rounded=1;whiteSpace=wrap;html=1;" parent="1" vertex="1">
          <mxGeometry x="84.5" y="240" width="65" height="50" as="geometry" />
        </mxCell>
        <mxCell id="j659b9dgUSXwy1I3t3Zu-53" value="" style="endArrow=none;html=1;rounded=0;entryX=0;entryY=0.5;entryDx=0;entryDy=0;exitX=1;exitY=0.5;exitDx=0;exitDy=0;" parent="1" source="j659b9dgUSXwy1I3t3Zu-52" target="j659b9dgUSXwy1I3t3Zu-48" edge="1">
          <mxGeometry width="50" height="50" relative="1" as="geometry">
            <mxPoint x="412" y="435" as="sourcePoint" />
            <mxPoint x="462" y="385" as="targetPoint" />
          </mxGeometry>
        </mxCell>
        <mxCell id="j659b9dgUSXwy1I3t3Zu-54" value="PC-LA02" style="whiteSpace=wrap;html=1;aspect=fixed;" parent="1" vertex="1">
          <mxGeometry x="244.5" y="590" width="50" height="50" as="geometry" />
        </mxCell>
        <mxCell id="j659b9dgUSXwy1I3t3Zu-55" value="PC- LA01" style="whiteSpace=wrap;html=1;aspect=fixed;" parent="1" vertex="1">
          <mxGeometry x="162" y="590" width="50" height="50" as="geometry" />
        </mxCell>
        <mxCell id="j659b9dgUSXwy1I3t3Zu-56" value="PC-&amp;nbsp; FI01" style="whiteSpace=wrap;html=1;aspect=fixed;" parent="1" vertex="1">
          <mxGeometry x="52" y="505" width="50" height="50" as="geometry" />
        </mxCell>
        <mxCell id="j659b9dgUSXwy1I3t3Zu-57" value="PC-&amp;nbsp;&lt;br&gt;FI02" style="whiteSpace=wrap;html=1;aspect=fixed;" parent="1" vertex="1">
          <mxGeometry x="122" y="505" width="50" height="50" as="geometry" />
        </mxCell>
        <mxCell id="j659b9dgUSXwy1I3t3Zu-59" value="" style="endArrow=none;html=1;rounded=0;entryX=0.5;entryY=0;entryDx=0;entryDy=0;exitX=0.75;exitY=1;exitDx=0;exitDy=0;" parent="1" source="j659b9dgUSXwy1I3t3Zu-46" target="j659b9dgUSXwy1I3t3Zu-54" edge="1">
          <mxGeometry width="50" height="50" relative="1" as="geometry">
            <mxPoint x="284.5" y="555" as="sourcePoint" />
            <mxPoint x="164.5" y="640" as="targetPoint" />
          </mxGeometry>
        </mxCell>
        <mxCell id="j659b9dgUSXwy1I3t3Zu-60" value="" style="endArrow=none;html=1;rounded=0;entryX=0.25;entryY=1;entryDx=0;entryDy=0;exitX=0.75;exitY=0;exitDx=0;exitDy=0;" parent="1" target="j659b9dgUSXwy1I3t3Zu-46" edge="1">
          <mxGeometry width="50" height="50" relative="1" as="geometry">
            <mxPoint x="192" y="590" as="sourcePoint" />
            <mxPoint x="464.5" y="390" as="targetPoint" />
          </mxGeometry>
        </mxCell>
        <mxCell id="j659b9dgUSXwy1I3t3Zu-61" value="" style="endArrow=none;html=1;rounded=0;entryX=0.75;entryY=1;entryDx=0;entryDy=0;exitX=0.5;exitY=0;exitDx=0;exitDy=0;" parent="1" source="j659b9dgUSXwy1I3t3Zu-57" target="j659b9dgUSXwy1I3t3Zu-47" edge="1">
          <mxGeometry width="50" height="50" relative="1" as="geometry">
            <mxPoint x="269.5" y="515" as="sourcePoint" />
            <mxPoint x="304.5" y="475" as="targetPoint" />
          </mxGeometry>
        </mxCell>
        <mxCell id="j659b9dgUSXwy1I3t3Zu-62" value="" style="endArrow=none;html=1;rounded=0;entryX=0.25;entryY=1;entryDx=0;entryDy=0;exitX=0.5;exitY=0;exitDx=0;exitDy=0;" parent="1" source="j659b9dgUSXwy1I3t3Zu-56" target="j659b9dgUSXwy1I3t3Zu-47" edge="1">
          <mxGeometry width="50" height="50" relative="1" as="geometry">
            <mxPoint x="157" y="515" as="sourcePoint" />
            <mxPoint x="179.5" y="475" as="targetPoint" />
          </mxGeometry>
        </mxCell>
        <mxCell id="j659b9dgUSXwy1I3t3Zu-63" value="Gäste-Laptop" style="shape=parallelogram;perimeter=parallelogramPerimeter;whiteSpace=wrap;html=1;fixedSize=1;" parent="1" vertex="1">
          <mxGeometry x="2" y="320" width="72.5" height="50" as="geometry" />
        </mxCell>
        <mxCell id="j659b9dgUSXwy1I3t3Zu-64" value="" style="endArrow=none;html=1;rounded=0;entryX=0;entryY=0.5;entryDx=0;entryDy=0;exitX=0.75;exitY=0;exitDx=0;exitDy=0;" parent="1" source="j659b9dgUSXwy1I3t3Zu-63" target="j659b9dgUSXwy1I3t3Zu-52" edge="1">
          <mxGeometry width="50" height="50" relative="1" as="geometry">
            <mxPoint x="834.5" y="370" as="sourcePoint" />
            <mxPoint x="884.5" y="320" as="targetPoint" />
          </mxGeometry>
        </mxCell>
        <mxCell id="j659b9dgUSXwy1I3t3Zu-65" value="PC-VW01" style="whiteSpace=wrap;html=1;aspect=fixed;" parent="1" vertex="1">
          <mxGeometry x="244.5" y="325" width="50" height="50" as="geometry" />
        </mxCell>
        <mxCell id="j659b9dgUSXwy1I3t3Zu-66" value="PC-GF01" style="whiteSpace=wrap;html=1;aspect=fixed;" parent="1" vertex="1">
          <mxGeometry x="182" y="325" width="50" height="50" as="geometry" />
        </mxCell>
        <mxCell id="j659b9dgUSXwy1I3t3Zu-67" value="MG-&lt;br&gt;Laptop" style="shape=parallelogram;perimeter=parallelogramPerimeter;whiteSpace=wrap;html=1;fixedSize=1;" parent="1" vertex="1">
          <mxGeometry x="99.5" y="325" width="72.5" height="50" as="geometry" />
        </mxCell>
        <mxCell id="j659b9dgUSXwy1I3t3Zu-68" value="" style="endArrow=none;html=1;rounded=0;exitX=0.25;exitY=1;exitDx=0;exitDy=0;entryX=1;entryY=0;entryDx=0;entryDy=0;" parent="1" source="j659b9dgUSXwy1I3t3Zu-48" target="j659b9dgUSXwy1I3t3Zu-66" edge="1">
          <mxGeometry width="50" height="50" relative="1" as="geometry">
            <mxPoint x="-28" y="435" as="sourcePoint" />
            <mxPoint x="102" y="425" as="targetPoint" />
          </mxGeometry>
        </mxCell>
        <mxCell id="j659b9dgUSXwy1I3t3Zu-71" value="" style="endArrow=none;html=1;rounded=0;entryX=0.75;entryY=1;entryDx=0;entryDy=0;exitX=0.5;exitY=0;exitDx=0;exitDy=0;" parent="1" source="j659b9dgUSXwy1I3t3Zu-65" target="j659b9dgUSXwy1I3t3Zu-48" edge="1">
          <mxGeometry width="50" height="50" relative="1" as="geometry">
            <mxPoint x="462" y="555" as="sourcePoint" />
            <mxPoint x="512" y="505" as="targetPoint" />
          </mxGeometry>
        </mxCell>
        <mxCell id="j659b9dgUSXwy1I3t3Zu-72" value="" style="endArrow=none;html=1;rounded=0;exitX=0;exitY=0.75;exitDx=0;exitDy=0;entryX=0.75;entryY=0;entryDx=0;entryDy=0;" parent="1" source="j659b9dgUSXwy1I3t3Zu-48" target="j659b9dgUSXwy1I3t3Zu-67" edge="1">
          <mxGeometry width="50" height="50" relative="1" as="geometry">
            <mxPoint x="462" y="555" as="sourcePoint" />
            <mxPoint x="512" y="505" as="targetPoint" />
          </mxGeometry>
        </mxCell>
        <mxCell id="j659b9dgUSXwy1I3t3Zu-74" value="VK= Verkauf&lt;br&gt;MA= Mitarbeiter&lt;br&gt;KD= Kunde&lt;br&gt;SP= Smartphone" style="text;html=1;align=center;verticalAlign=middle;resizable=0;points=[];autosize=1;strokeColor=none;fillColor=none;fontSize=11;fontFamily=Helvetica;" parent="1" vertex="1">
          <mxGeometry x="542" y="290" width="100" height="60" as="geometry" />
        </mxCell>
        <mxCell id="j659b9dgUSXwy1I3t3Zu-75" value="EK= Einkauf&lt;br&gt;" style="text;html=1;align=center;verticalAlign=middle;resizable=0;points=[];autosize=1;strokeColor=none;fillColor=none;fontSize=11;fontFamily=Helvetica;" parent="1" vertex="1">
          <mxGeometry x="347" y="520" width="80" height="20" as="geometry" />
        </mxCell>
        <mxCell id="j659b9dgUSXwy1I3t3Zu-76" value="LA= Lager" style="text;html=1;align=center;verticalAlign=middle;resizable=0;points=[];autosize=1;strokeColor=none;fillColor=none;fontSize=11;fontFamily=Helvetica;" parent="1" vertex="1">
          <mxGeometry x="214.5" y="480" width="70" height="20" as="geometry" />
        </mxCell>
        <mxCell id="j659b9dgUSXwy1I3t3Zu-77" value="FI= Finanzen" style="text;html=1;align=center;verticalAlign=middle;resizable=0;points=[];autosize=1;strokeColor=none;fillColor=none;fontSize=11;fontFamily=Helvetica;" parent="1" vertex="1">
          <mxGeometry x="107" y="395" width="80" height="20" as="geometry" />
        </mxCell>
        <mxCell id="j659b9dgUSXwy1I3t3Zu-78" value="VW= Verwaltung&lt;br&gt;MG= Managemen" style="text;html=1;align=center;verticalAlign=middle;resizable=0;points=[];autosize=1;strokeColor=none;fillColor=none;fontSize=11;fontFamily=Helvetica;" parent="1" vertex="1">
          <mxGeometry x="187" y="210" width="100" height="30" as="geometry" />
        </mxCell>
      </root>
    </mxGraphModel>
  </diagram>
</mxfile>
